<svg width="11" height="21" viewBox="0 0 11 21" fill="none" xmlns="http://www.w3.org/2000/svg">
<path d="M8.45248 9.53942C7.61941 9.08401 6.73373 8.73704 5.85682 8.37705C5.34821 8.16887 4.86152 7.92598 4.43183 7.58768C3.58561 6.91975 3.74784 5.83546 4.73875 5.40607C5.01936 5.28463 5.31313 5.2456 5.61128 5.22825C6.76004 5.16753 7.85179 5.37571 8.89094 5.87015C9.40831 6.11737 9.57931 6.0393 9.7547 5.50583C9.93885 4.94199 10.0923 4.36948 10.2633 3.80131C10.3773 3.41964 10.237 3.16808 9.87308 3.0076C9.20662 2.71701 8.52263 2.50883 7.80356 2.39606C6.86527 2.25293 6.86527 2.24859 6.86088 1.3161C6.8565 0.00192767 6.8565 0.00192764 5.52359 0.00192764C5.33067 0.00192764 5.13775 -0.00240955 4.94483 0.00192764C4.32222 0.0192764 4.21699 0.127706 4.19945 0.747925C4.19068 1.02551 4.19945 1.30309 4.19507 1.585C4.19068 2.40907 4.1863 2.39606 3.38831 2.68231C1.4591 3.37627 0.266495 4.67742 0.139342 6.75928C0.0253435 8.60259 0.998717 9.84736 2.52893 10.7538C3.47161 11.3133 4.51514 11.643 5.51482 12.081C5.90505 12.2502 6.27773 12.4453 6.60219 12.7142C7.56241 13.4993 7.38703 14.8048 6.24704 15.2992C5.63759 15.5638 4.99306 15.6288 4.33099 15.5464C3.30938 15.4207 2.33163 15.1561 1.41087 14.6833C0.871565 14.4058 0.71372 14.4795 0.529568 15.0563C0.371724 15.5551 0.231418 16.0582 0.091112 16.5613C-0.0974243 17.2379 -0.0272717 17.3984 0.626029 17.715C1.4591 18.1141 2.34916 18.3179 3.25677 18.461C3.96707 18.5738 3.98899 18.6042 3.99776 19.3328C4.00214 19.6624 4.00214 19.9964 4.00653 20.326C4.01091 20.7424 4.2126 20.9853 4.64668 20.994C5.13775 21.0026 5.6332 21.0026 6.12427 20.9896C6.52765 20.9809 6.73373 20.7641 6.73373 20.3607C6.73373 19.9097 6.75565 19.4543 6.73811 19.0032C6.71619 18.5434 6.91788 18.3092 7.36511 18.1878C8.39548 17.9102 9.27239 17.3637 9.94762 16.5483C11.8242 14.293 11.1095 10.9924 8.45248 9.53942Z" fill="#fff"/>
</svg>
