<svg width="175" height="47" viewBox="0 0 175 47" fill="none" xmlns="http://www.w3.org/2000/svg">
<path d="M23.1 46.2C10.4 46.2 0 35.9 0 23.1C0 10.4 10.4 0 23.1 0C35.8 0 46.2 10.4 46.2 23.1C46.2 35.9 35.9 46.2 23.1 46.2ZM23.1 1.1C10.9 1.1 1.1 11 1.1 23.1C1.1 35.3 11 45.1 23.1 45.1C35.3 45.1 45.1 35.2 45.1 23.1C45.1 11 35.3 1.1 23.1 1.1ZM42.7 29.7H42.6L42.5 29.6C42.5 29.6 43.3 27.3 43.3 24.7C43.3 21.9 42.1 20.2 40.7 20.2C39.8 20.2 39.2 20.8 39.2 21.8C39.2 23.5 41.3 23.7 41.3 27.4C41.3 28.9 41 30.4 40.5 32C38.1 40 30.6 43.7 23.2 43.7C19.8 43.7 17.4 43 16.7 42.7C16.7 42.7 16.6 42.6 16.7 42.6L16.8 42.5C17.1 42.6 19.2 43.3 21.7 43.3C24.5 43.3 26.2 42.1 26.2 40.7C26.2 39.8 25.5 39.1 24.6 39.1C22.9 39.1 22.7 41.3 19 41.3C17.4 41.3 16 41 14.3 40.5C6.3 38 2.5 30.5 2.5 23.1C2.5 19.5 3.5 16.6 3.5 16.6H3.6L3.7 16.7C3.6 17 2.9 19.1 2.9 21.6C2.9 24.4 4.1 26.1 5.5 26.1C6.3 26.1 7 25.5 7 24.6C7 22.9 4.9 22.7 4.9 19C4.9 17.4 5.2 16 5.7 14.3C8.3 6.3 15.8 2.5 23.1 2.5C26.5 2.5 29.5 3.5 29.6 3.6V3.7L29.5 3.8C29.5 3.8 27.5 3 24.6 3C21.8 3 20.1 4.2 20.1 5.6C20.1 6.4 20.7 7.1 21.7 7.1C23.4 7.1 23.6 5 27.3 5C28.9 5 30.3 5.3 32 5.8C40 8.2 43.7 15.8 43.7 23.1C43.8 26.8 42.7 29.7 42.7 29.7ZM31.7 24.2C29.5 24.2 27.9 25.8 27.9 27.7C27.9 29.3 28.9 30.6 30.1 30.6C30.5 30.6 31 30.3 31 29.8C31 29 29.9 28.8 30 27.5C30.1 26.7 30.8 26.1 31.6 26.1C33.1 26.1 33.9 27.6 33.9 29.1C33.8 31.5 32.1 33.1 30 33.1C27.3 33.1 25.6 30.5 25.6 27.8C25.6 23.7 28.3 22.1 29.7 21.7C29.7 21.7 33.4 22.4 33.3 20.7C33.3 20 32.2 19.7 31.4 19.7C30.5 19.7 29.7 20 29.7 20C29.3 19.8 28.9 19.3 28.8 18.8C31.4 16.8 33.3 14.9 33.3 12.7C33.3 11.5 32.5 10.5 31.1 10.5C28.5 10.5 26.5 13.8 26.5 16.8C26.5 17.3 26.5 17.8 26.6 18.3C24.9 19.5 23.7 20.3 21.5 21.6C21.5 21.3 21.6 20.6 21.7 19.7C22.5 18.9 23.5 17.6 23.5 16.7C23.5 16.3 23.2 15.9 22.7 15.9C21.4 15.9 20.5 17.8 20.2 19.2C19.6 19.9 18.5 20.8 17.5 20.8C16.7 20.8 16.5 20.1 16.4 19.8C18.8 19 21.8 15.6 21.8 12.6C21.8 12 21.5 10.5 19.6 10.5C16.7 10.5 14.3 14.8 14.3 18.1C13.3 18.1 12.9 17 12.9 16.2C12.9 15.4 13.2 14.5 13.2 14.3C13.2 14 13.1 13.7 12.7 13.7C11.7 13.7 11.2 15 11.2 16.5C11.3 18.5 12.6 19.8 14.4 20C14.7 21.2 15.7 22.4 17.1 22.4C17.9 22.4 19 22.1 19.7 21.5C19.6 21.9 19.6 22.3 19.5 22.7C16.7 24.2 14.6 25.2 12.8 26.9C11.3 28.2 10.5 30 10.5 31.4C10.5 33.3 11.7 35.1 14.2 35.1C17.1 35.1 19.4 32.7 20.5 29.5C21 28 21.2 25.7 21.3 23.7C24.2 22 25.6 21.1 27.2 20C27.4 20.3 27.6 20.6 27.8 20.8C26.5 21.5 23.3 23.5 23.3 28.2C23.3 31.5 25.5 35.2 30 35.2C33.6 35.2 36.1 32.2 36.1 29.3C36 26.6 34.5 24.2 31.7 24.2ZM14.1 33.2C13.1 33.2 12.5 32.6 12.5 31.6C12.5 28.8 16.3 26.2 19.2 24.8C18.7 28.6 17.4 33 14.1 33.2ZM16.2 18C16.2 15.9 18.3 11.9 19.6 12.3C21.1 12.8 18.3 16.9 16.2 18ZM28.3 17.1C28.3 14.5 30.1 11.9 31 12.4C32.2 12.9 30.2 15.4 28.3 17.1Z" fill="#2E74DF"/>
<path d="M69.2 33.3V12.3H78.5999C80.9999 12.3 82.8999 12.9 84.0999 14.2C84.9999 15.1 85.5 16.3 85.5 17.7C85.5 19.8 84.5 21.3 82.5 22.4C85.2999 23.3 86.6999 25.1 86.6999 27.6C86.6999 29.4 85.9999 30.9 84.5999 31.9C83.1999 32.9 81.3 33.4001 78.9 33.4001H69.2V33.3ZM72.8 21.1H77.8C79 21.1 79.9999 20.9 80.6999 20.4C81.3999 19.9 81.8 19.2 81.8 18.2C81.8 17.4 81.5 16.7 80.8 16.2C80.2 15.7 79.2999 15.5 78.0999 15.5H72.8V21.1ZM72.8 30H79C80.3 30 81.3 29.7001 82 29.2001C82.7 28.7001 83 28 83 27.1C83 25.2 81.5999 24.3 78.6999 24.3H72.9V30H72.8Z" fill="#F75654"/>
<path d="M99.4999 33.6C96.6999 33.6 94.4999 32.8001 92.8999 31.2001C91.2999 29.6 90.4999 27.3 90.4999 24.3V12.3H94.1999V24.2C94.1999 26.1 94.6999 27.6 95.5999 28.6C96.4999 29.6 97.7999 30.2001 99.4999 30.2001C101.2 30.2001 102.5 29.7001 103.4 28.7001C104.3 27.7001 104.8 26.2 104.8 24.3V12.3H108.5V24.2C108.5 27.3 107.7 29.6 106.1 31.2001C104.5 32.8001 102.3 33.6 99.4999 33.6Z" fill="#F75654"/>
<path d="M119.7 33.3V25L111.4 12.3H115.7L121.6 21.6L127.5 12.3H131.7L123.4 24.9V33.3H119.7Z" fill="#F75654"/>
<path d="M145 33.6C141.8 33.6 139.1 32.6 137.1 30.5C135.1 28.4 134.1 25.9 134.1 22.7C134.1 19.7 135.1 17.1 137.2 15C139.2 12.9 141.8 11.8 145 11.8C146.8 11.8 148.3 12 149.5 12.5C150.7 13 151.9 13.7 153.1 14.6L150.8 17.4C149.9 16.6 149 16.1 148.1 15.7C147.2 15.3 146.1 15.1 144.9 15.1C143 15.1 141.4 15.8 140.1 17.3C138.8 18.8 138.1 20.5 138.1 22.6C138.1 24.8 138.8 26.6 140.1 28C141.4 29.4 143.1 30.1 145.3 30.1C147.3 30.1 148.9 29.6 150.4 28.5V24.6H145V21.4H153.9V30.2001C151.2 32.6 148.3 33.6 145 33.6Z" fill="#2E74DF"/>
<path d="M158.6 33.3V12.3H174.2V15.6H162.3V21H172.8V24.3H162.3V30H174.3V33.3H158.6Z" fill="#2E74DF"/>
</svg>
