<svg width="23" height="23" viewBox="0 0 23 23" fill="none" xmlns="http://www.w3.org/2000/svg">
<rect width="23" height="23" rx="3" fill="#2E74DF"/>
<path d="M6.13846 12.0769C6.04615 11.9846 6 11.8462 6 11.7538C6 11.6615 6.04615 11.5231 6.13846 11.4308L6.78462 10.7846C6.96923 10.6 7.24615 10.6 7.43077 10.7846L7.47692 10.8308L10.0154 13.5538C10.1077 13.6462 10.2462 13.6462 10.3385 13.5538L16.5231 7.13846H16.5692C16.7538 6.95385 17.0308 6.95385 17.2154 7.13846L17.8615 7.78462C18.0462 7.96923 18.0462 8.24615 17.8615 8.43077L10.4769 16.0923C10.3846 16.1846 10.2923 16.2308 10.1538 16.2308C10.0154 16.2308 9.92308 16.1846 9.83077 16.0923L6.23077 12.2154L6.13846 12.0769Z" fill="white"/>
</svg>
