<svg width="18" height="18" viewBox="0 0 18 18" fill="none" xmlns="http://www.w3.org/2000/svg">
<path d="M9.00001 0C4.03742 0 2.41879e-05 3.6336 2.41879e-05 8.09999C2.41879e-05 9.66119 0.493824 11.1735 1.43042 12.4812C1.25312 14.4423 0.777923 15.8982 0.0879241 16.5879C-0.0032758 16.6791 -0.0260758 16.8186 0.0315241 16.9338C0.0825241 17.0367 0.187524 17.1 0.300024 17.1C0.313824 17.1 0.327624 17.0991 0.341724 17.097C0.463224 17.0799 3.28562 16.6737 5.32712 15.4953C6.48632 15.963 7.72111 16.2 9.00001 16.2C13.9626 16.2 18 12.5664 18 8.09999C18 3.6336 13.9626 0 9.00001 0ZM4.80002 9.29999C4.13822 9.29999 3.60002 8.76179 3.60002 8.09999C3.60002 7.43819 4.13822 6.89999 4.80002 6.89999C5.46182 6.89999 6.00002 7.43819 6.00002 8.09999C6.00002 8.76179 5.46182 9.29999 4.80002 9.29999ZM9.00001 9.29999C8.33821 9.29999 7.80001 8.76179 7.80001 8.09999C7.80001 7.43819 8.33821 6.89999 9.00001 6.89999C9.66181 6.89999 10.2 7.43819 10.2 8.09999C10.2 8.76179 9.66181 9.29999 9.00001 9.29999ZM13.2 9.29999C12.5382 9.29999 12 8.76179 12 8.09999C12 7.43819 12.5382 6.89999 13.2 6.89999C13.8618 6.89999 14.4 7.43819 14.4 8.09999C14.4 8.76179 13.8618 9.29999 13.2 9.29999Z" fill="#6D89A0"/>
</svg>
