<svg width="24" height="24" viewBox="0 0 24 24" fill="none" xmlns="http://www.w3.org/2000/svg">
<path d="M18 0C14.6357 0 12 2.63573 12 6C12 9.78225 15.8825 14.0651 17.2138 15.4233L16.8907 15.6387C16.6607 15.792 16.5987 16.102 16.752 16.332C16.8482 16.4766 17.0069 16.5547 17.1685 16.5547C17.2637 16.5547 17.3599 16.5274 17.4453 16.4707L18.2774 15.916C18.2886 15.9085 18.2863 15.9025 18.2925 15.8955C18.3089 15.8834 18.3281 15.8776 18.3433 15.8632C18.5742 15.645 24 10.4653 24 6C24 2.63573 21.3643 0 18 0ZM18 9C16.3457 9 15 7.65431 15 6C15 4.34569 16.3457 3 18 3C19.6543 3 21 4.34569 21 6C21 7.65431 19.6543 9 18 9Z" fill="#6D89A0"/>
<path d="M9.5078 20.5605L8.94323 20.9369C10.4303 19.0049 12 16.4022 12 14C12 10.6357 9.36427 8 6 8C2.63573 8 0 10.6357 0 14C0 18.4653 5.42578 23.645 5.65673 23.8633C5.75292 23.9546 5.87648 24 6 24C6.0952 24 6.18656 23.9645 6.2693 23.9103C6.27197 23.9105 6.27473 23.9178 6.27736 23.916L7.10939 23.3614C7.27959 23.2479 7.35642 23.0485 7.32337 22.8593C7.49597 22.6724 7.6883 22.456 7.88789 22.2269C7.89014 22.2305 7.89019 22.2347 7.89258 22.2383C7.98877 22.3828 8.14748 22.4609 8.30906 22.4609C8.40427 22.4609 8.50045 22.4336 8.58591 22.3769L10.0625 21.3926C10.2924 21.2392 10.3545 20.9292 10.2011 20.6992C10.0484 20.4692 9.7373 20.4072 9.5078 20.5605ZM6 17C4.34569 17 3 15.6543 3 14C3 12.3457 4.34569 11 6 11C7.65431 11 9 12.3457 9 14C9 15.6543 7.65431 17 6 17Z" fill="#6D89A0"/>
<path d="M15.4142 16.6231L13.9377 17.6075C13.7077 17.7608 13.6457 18.0708 13.799 18.3009C13.8952 18.4454 14.0539 18.5235 14.2155 18.5235C14.3107 18.5235 14.4069 18.4962 14.4923 18.4395L15.9689 17.4551C16.1989 17.3018 16.2609 16.9918 16.1075 16.7618C15.9548 16.5313 15.6447 16.4703 15.4142 16.6231Z" fill="#6D89A0"/>
<path d="M12.4611 18.5918L10.9845 19.5762C10.7546 19.7295 10.6925 20.0395 10.8459 20.2696C10.9421 20.4141 11.1008 20.4922 11.2624 20.4922C11.3576 20.4922 11.4537 20.4649 11.5392 20.4082L13.0158 19.4238C13.2457 19.2705 13.3077 18.9605 13.1544 18.7305C13.0017 18.5005 12.6901 18.438 12.4611 18.5918Z" fill="#6D89A0"/>
</svg>
