<svg width="19" height="14" viewBox="0 0 19 14" fill="none" xmlns="http://www.w3.org/2000/svg">
<path d="M18.6667 11.6666C18.6667 12.0758 18.5516 12.4552 18.3672 12.789L12.4733 6.1946L18.3033 1.09393C18.5301 1.45383 18.6667 1.87659 18.6667 2.33344V11.6666ZM9.33335 7.39195L17.4455 0.293997C17.1126 0.111759 16.7378 3.75696e-08 16.3334 3.75696e-08H2.33332C1.92845 3.75696e-08 1.55347 0.111759 1.22192 0.293997L9.33335 7.39195ZM11.595 6.96253L9.71722 8.60656C9.60738 8.70224 9.47062 8.75002 9.33335 8.75002C9.19601 8.75002 9.05925 8.70224 8.94941 8.60656L7.07124 6.96245L1.10285 13.6411C1.4606 13.8655 1.87986 14 2.33328 14H16.3334C16.7867 14 17.2062 13.8655 17.5638 13.6411L11.595 6.96253ZM0.363476 1.09389C0.136727 1.45379 0 1.87655 0 2.33344V11.6666C0 12.0759 0.114567 12.4552 0.299652 12.789L6.19279 6.19349L0.363476 1.09389Z" fill="#6D89A0"/>
</svg>
