<svg width="15" height="15" viewBox="0 0 15 15" fill="none" xmlns="http://www.w3.org/2000/svg">
<path d="M14.7482 6.40204L12.4749 4.09633V1.43285C12.4749 0.951255 12.0901 0.560961 11.6146 0.560961C11.1402 0.560961 10.7554 0.951255 10.7554 1.43285V2.35234L9.0627 0.635494C8.22583 -0.212839 6.77078 -0.211334 5.93582 0.63703L0.251661 6.40204C-0.0838871 6.74304 -0.0838871 7.29481 0.251661 7.63529C0.587361 7.9762 1.13244 7.9762 1.46802 7.63529L7.15163 1.87013C7.33678 1.68332 7.66313 1.68332 7.84731 1.86958L13.5319 7.63529C13.7005 7.80576 13.9202 7.89055 14.1399 7.89055C14.3601 7.89055 14.5802 7.80567 14.7483 7.63529C15.0839 7.29484 15.0839 6.74307 14.7482 6.40204Z" fill="white"/>
<path d="M7.7988 3.52521C7.63366 3.35781 7.36627 3.35781 7.20161 3.52521L2.20181 8.59473C2.12288 8.67476 2.07812 8.78402 2.07812 8.89805V12.5956C2.07812 13.4632 2.77175 14.1667 3.62718 14.1667H6.10259V10.2785H8.89728V14.1667H11.3727C12.2281 14.1667 12.9217 13.4632 12.9217 12.5956V8.89805C12.9217 8.78402 12.8774 8.67476 12.7981 8.59473L7.7988 3.52521Z" fill="white"/>
</svg>
