<svg width="15" height="15" viewBox="0 0 15 15" fill="none" xmlns="http://www.w3.org/2000/svg">
<path d="M14.7482 7.23529L12.4749 4.92958V2.2661C12.4749 1.78451 12.0901 1.39421 11.6146 1.39421C11.1402 1.39421 10.7554 1.78451 10.7554 2.2661V3.18559L9.0627 1.46875C8.22583 0.620413 6.77078 0.621918 5.93582 1.47028L0.251661 7.23529C-0.0838871 7.57629 -0.0838871 8.12806 0.251661 8.46854C0.587361 8.80945 1.13244 8.80945 1.46802 8.46854L7.15163 2.70338C7.33678 2.51657 7.66313 2.51657 7.84731 2.70283L13.5319 8.46854C13.7005 8.63901 13.9202 8.7238 14.1399 8.7238C14.3601 8.7238 14.5802 8.63892 14.7483 8.46854C15.0839 8.12809 15.0839 7.57632 14.7482 7.23529Z" fill="#6D89A0"/>
<path d="M7.7988 4.35846C7.63366 4.19106 7.36627 4.19106 7.20161 4.35846L2.20181 9.42798C2.12288 9.50801 2.07812 9.61728 2.07812 9.7313V13.4288C2.07812 14.2965 2.77175 14.9999 3.62718 14.9999H6.10259V11.1117H8.89728V14.9999H11.3727C12.2281 14.9999 12.9217 14.2965 12.9217 13.4288V9.7313C12.9217 9.61728 12.8774 9.50801 12.7981 9.42798L7.7988 4.35846Z" fill="#6D89A0"/>
</svg>
