<svg width="57" height="58" viewBox="0 0 57 58" fill="none" xmlns="http://www.w3.org/2000/svg">
<path d="M11.474 4.9289H15.2493C15.7675 4.9289 16.2117 5.37239 16.2117 5.8898V6.8507L18.5065 5.15064C18.6545 5.00281 18.8766 4.9289 19.0987 4.9289H22.874V2.12012H11.474V4.9289Z" fill="#AFD4FF"/>
<path d="M25.613 19.0467C26.4273 19.7119 27.4636 20.0815 28.574 20.0815C31.1649 20.0815 33.3117 17.938 33.3117 15.3509C33.3117 12.7639 31.1649 10.6204 28.574 10.6204C25.9831 10.6204 23.7623 12.7639 23.7623 15.3509C23.7623 15.7944 23.8364 16.2379 23.9844 16.6814C24.2805 17.6423 24.8727 18.4554 25.613 19.0467Z" fill="#AFD4FF"/>
<path d="M24.7247 32.4255V36.1952H32.3493V32.4255C32.3493 31.9081 32.7935 31.4646 33.3117 31.4646H37.087V26.734C37.087 24.147 34.9403 22.0034 32.3493 22.0034H32.0532L29.4623 28.9515C29.3143 29.321 28.9442 29.5428 28.574 29.5428C28.2039 29.5428 27.8338 29.321 27.6857 28.9515L25.0948 22.0034H24.7987C22.2078 22.0034 20.061 24.147 20.061 26.734V31.4646H23.7623C24.2805 31.4646 24.7247 31.9081 24.7247 32.4255ZM27.6117 31.4646H29.5364V33.3864H27.6117V31.4646Z" fill="#AFD4FF"/>
<path d="M28.5001 25.9209L29.9806 22.0034H27.0195L28.5001 25.9209Z" fill="white"/>
<path d="M53.0026 20.1554C54.261 18.9727 55.0753 17.2727 55.0753 15.3509C55.0753 11.729 52.1143 8.69849 48.413 8.69849C44.7117 8.69849 41.7506 11.6551 41.7506 15.3509C41.7506 17.6422 42.9351 19.7119 44.7857 20.8945C43.5273 21.7815 42.713 23.1859 42.713 24.812V31.4644H38.9377V26.7338C38.9377 23.3337 36.3468 20.5249 33.0896 20.1554C34.348 18.9727 35.1623 17.2727 35.1623 15.3509C35.1623 11.729 32.2013 8.69849 28.5 8.69849C24.7987 8.69849 21.8377 11.6551 21.8377 15.3509C21.8377 17.1987 22.6519 18.8988 23.9104 20.1554C20.6532 20.5249 18.0623 23.3337 18.0623 26.7338V31.4644H14.287V24.812C14.287 23.1859 13.4727 21.7815 12.2143 20.8945C14.0649 19.7119 15.2494 17.6422 15.2494 15.3509C15.2494 11.729 12.2883 8.69849 8.58701 8.69849C4.88571 8.69849 1.92468 11.6551 1.92468 15.3509C1.92468 17.2727 2.73896 18.9727 3.9974 20.1554C1.77662 20.5249 0 22.4467 0 24.812V39.0038C0 41.2951 1.62857 43.2169 3.77532 43.6604V57.9261H5.7V43.7343H14.213V56.9652C14.213 57.4826 14.6571 57.9261 15.1753 57.9261H20.8753C21.3935 57.9261 21.8377 57.4826 21.8377 56.9652V41.8865H27.5377V56.0782H23.7623V58H33.2377V56.0782H29.4623V41.8865H35.1623V57.0391C35.1623 57.5565 35.6065 58 36.1247 58H41.8247C42.3429 58 42.787 57.5565 42.787 57.0391V43.7343H51.3V57.9261H53.2247V43.6604C55.3714 43.2169 57 41.2951 57 39.0038V24.812C57 22.4467 55.2234 20.5249 53.0026 20.1554ZM43.6753 15.3509C43.6753 12.7638 45.8221 10.6203 48.413 10.6203C51.0039 10.6203 53.1506 12.7638 53.1506 15.3509C53.1506 17.9379 51.0039 20.0814 48.413 20.0814C45.8221 20.0814 43.6753 17.9379 43.6753 15.3509ZM19.987 26.7338C19.987 24.1468 22.1338 22.0032 24.7247 22.0032H25.0208L27.6117 28.9513C27.7597 29.3209 28.1299 29.5426 28.5 29.5426C28.8701 29.5426 29.2403 29.3209 29.3883 28.9513L31.9792 22.0032H32.2753C34.8662 22.0032 37.013 24.1468 37.013 26.7338V31.4644H33.2377C32.7195 31.4644 32.2753 31.9079 32.2753 32.4253V36.195H24.7247V32.4253C24.7247 31.9079 24.2805 31.4644 23.7623 31.4644H19.987V26.7338ZM23.7623 15.3509C23.7623 12.7638 25.9091 10.6203 28.5 10.6203C31.0909 10.6203 33.2377 12.7638 33.2377 15.3509C33.2377 17.9379 31.0909 20.0814 28.5 20.0814C27.3896 20.0814 26.3532 19.7119 25.539 19.0466C24.7987 18.4553 24.2065 17.6422 23.9104 16.6813C23.8364 16.2378 23.7623 15.7944 23.7623 15.3509ZM29.9805 22.0032L28.5 25.9207L27.0195 22.0032H29.9805ZM3.84935 15.3509C3.84935 12.7638 5.9961 10.6203 8.58701 10.6203C11.1779 10.6203 13.3247 12.7638 13.3247 15.3509C13.3247 17.9379 11.1779 20.0814 8.58701 20.0814C5.9961 20.0814 3.84935 17.9379 3.84935 15.3509ZM19.987 56.0782H16.2117V42.8474C16.2117 42.3299 15.7675 41.8865 15.2494 41.8865H4.81169C3.25714 41.8865 1.9987 40.6299 1.9987 39.0777V24.812C1.9987 23.2598 3.25714 22.0032 4.81169 22.0032H9.54935C11.1039 22.0032 12.3623 23.2598 12.3623 24.812V32.4253C12.3623 32.9427 12.8065 33.3862 13.3247 33.3862H22.8V36.195H9.54935V27.6947H7.62468V37.1559C7.62468 37.6733 8.06883 38.1168 8.58701 38.1168H17.1C18.6545 38.1168 19.913 39.3733 19.913 40.9256V56.0782H19.987ZM35.3104 39.9647H21.7636C21.6156 39.2994 21.3195 38.6342 20.9494 38.0429H23.7623H33.2377H36.0506C35.6805 38.6342 35.3844 39.2994 35.3104 39.9647ZM55.0753 39.0038C55.0753 40.556 53.8169 41.8125 52.2623 41.8125H41.8247C41.3065 41.8125 40.8623 42.256 40.8623 42.7734V56.0043H37.087V40.9256C37.087 39.3733 38.3455 38.1168 39.9 38.1168H48.413C48.9312 38.1168 49.3753 37.6733 49.3753 37.1559V27.6947H47.4506V36.195H34.2V33.3862H43.6753C44.1935 33.3862 44.6377 32.9427 44.6377 32.4253V24.812C44.6377 23.2598 45.8961 22.0032 47.4506 22.0032H52.1883C53.7429 22.0032 55.0013 23.2598 55.0013 24.812V39.0038H55.0753Z" fill="#1E5BAD"/>
<path d="M29.5362 31.4644H27.6116V33.3862H29.5362V31.4644Z" fill="#1E5BAD"/>
<path d="M10.5117 6.85062H10.7337H14.287V8.77242C14.287 9.14199 14.5091 9.43765 14.8052 9.58548C14.9532 9.6594 15.1013 9.6594 15.2493 9.6594C15.4714 9.6594 15.6194 9.58548 15.8415 9.43765L19.3948 6.85062H23.8363C24.3545 6.85062 24.7987 6.40713 24.7987 5.88972V1.15914C24.7246 0.641734 24.2805 0.198242 23.7623 0.198242H10.5117C9.99347 0.198242 9.54932 0.641734 9.54932 1.15914V5.88972C9.54932 6.40713 9.99347 6.85062 10.5117 6.85062ZM22.874 4.92882H19.0987C18.8766 4.92882 18.7285 5.00274 18.5065 5.15057L16.2117 6.85062V5.88972C16.2117 5.37231 15.7675 4.92882 15.2493 4.92882H11.474V2.12004H22.874V4.92882Z" fill="#1E5BAD"/>
<path d="M35.1622 3.00708H33.2375V4.92888H35.1622V3.00708Z" fill="#1E5BAD"/>
<path d="M39.0116 3.00708H37.0869V4.92888H39.0116V3.00708Z" fill="#1E5BAD"/>
<path d="M42.787 3.00708H40.8623V4.92888H42.787V3.00708Z" fill="#1E5BAD"/>
</svg>
