<svg width="23" height="21" viewBox="0 0 23 21" fill="none" xmlns="http://www.w3.org/2000/svg">
<path d="M11.5247 0C8.66593 0 8.30716 0.012469 7.18435 0.0634377C6.06373 0.114625 5.29882 0.291594 4.62952 0.55125C3.93719 0.819438 3.34991 1.17819 2.76482 1.76203C2.1793 2.34566 1.81965 2.93147 1.54991 3.62184C1.28895 4.28969 1.11131 5.05291 1.06087 6.17028C1.01066 7.29028 0.997498 7.64838 0.997498 10.5C0.997498 13.3516 1.01022 13.7084 1.06109 14.8284C1.11263 15.9462 1.29004 16.7092 1.55013 17.3768C1.81921 18.0674 2.17886 18.6532 2.76417 19.2369C3.34904 19.8209 3.93632 20.1806 4.6282 20.4488C5.29794 20.7084 6.06307 20.8854 7.18347 20.9366C8.30628 20.9875 8.66483 21 11.5234 21C14.3824 21 14.7401 20.9875 15.8629 20.9366C16.9835 20.8854 17.7493 20.7084 18.419 20.4488C19.1111 20.1806 19.6975 19.8209 20.2824 19.2369C20.8679 18.6532 21.2276 18.0674 21.4973 17.3771C21.7561 16.7092 21.9337 15.946 21.9863 14.8286C22.0368 13.7086 22.0499 13.3516 22.0499 10.5C22.0499 7.64838 22.0368 7.2905 21.9863 6.1705C21.9337 5.05269 21.7561 4.28969 21.4973 3.62206C21.2276 2.93147 20.8679 2.34566 20.2824 1.76203C19.6969 1.17797 19.1113 0.819219 18.4184 0.55125C17.7473 0.291594 16.9819 0.114625 15.8613 0.0634377C14.7385 0.012469 14.3811 0 11.5214 0H11.5247ZM10.5804 1.89219C10.8607 1.89175 11.1734 1.89219 11.5247 1.89219C14.3352 1.89219 14.6683 1.90225 15.7782 1.95256C16.8045 1.99938 17.3616 2.17044 17.7326 2.31416C18.2238 2.50447 18.5741 2.73197 18.9423 3.09947C19.3107 3.46697 19.5387 3.81697 19.73 4.30697C19.8741 4.67666 20.0458 5.23228 20.0925 6.25603C20.1429 7.36291 20.1539 7.69541 20.1539 10.4976C20.1539 13.2998 20.1429 13.6323 20.0925 14.7392C20.0455 15.7629 19.8741 16.3185 19.73 16.6882C19.5392 17.1782 19.3107 17.5271 18.9423 17.8944C18.5738 18.2619 18.2241 18.4894 17.7326 18.6797C17.362 18.8241 16.8045 18.9947 15.7782 19.0415C14.6686 19.0918 14.3352 19.1028 11.5247 19.1028C8.71395 19.1028 8.38084 19.0918 7.27119 19.0415C6.24487 18.9943 5.68785 18.8232 5.31658 18.6795C4.82535 18.4892 4.47448 18.2617 4.10605 17.8942C3.73763 17.5267 3.50956 17.1776 3.31833 16.6873C3.17425 16.3177 3.00254 15.762 2.95583 14.7383C2.90539 13.6314 2.89531 13.2989 2.89531 10.495C2.89531 7.69103 2.90539 7.36028 2.95583 6.25341C3.00276 5.22966 3.17425 4.67403 3.31833 4.30391C3.50912 3.81391 3.73763 3.46391 4.10605 3.09641C4.47448 2.72891 4.82535 2.50141 5.31658 2.31066C5.68763 2.16628 6.24487 1.99566 7.27119 1.94863C8.24224 1.90488 8.61856 1.89175 10.5804 1.88956V1.89219ZM17.1436 3.63562C16.4462 3.63562 15.8804 4.19934 15.8804 4.89519C15.8804 5.59081 16.4462 6.15519 17.1436 6.15519C17.8409 6.15519 18.4067 5.59081 18.4067 4.89519C18.4067 4.19956 17.8409 3.63519 17.1436 3.63519V3.63562ZM11.5247 5.10781C8.53939 5.10781 6.11899 7.52216 6.11899 10.5C6.11899 13.4778 8.53939 15.8911 11.5247 15.8911C14.51 15.8911 16.9295 13.4778 16.9295 10.5C16.9295 7.52216 14.5098 5.10781 11.5245 5.10781H11.5247ZM11.5247 7C13.4624 7 15.0335 8.56691 15.0335 10.5C15.0335 12.4329 13.4624 14 11.5247 14C9.58676 14 8.01593 12.4329 8.01593 10.5C8.01593 8.56691 9.58676 7 11.5247 7Z" fill="#FEFEFF"/>
</svg>
