<svg width="19" height="17" viewBox="0 0 19 17" fill="none" xmlns="http://www.w3.org/2000/svg">
<path d="M18.7441 10.4227V17H14.931V10.8632C14.931 9.32158 14.3795 8.26949 12.9993 8.26949C11.9457 8.26949 11.3186 8.97852 11.0428 9.66439C10.9422 9.90959 10.9163 10.2509 10.9163 10.5941V17H7.10192C7.10192 17 7.15329 6.60627 7.10192 5.5294H10.9159V7.15531C10.9082 7.16747 10.8982 7.18058 10.8909 7.19237H10.9159V7.15531C11.4227 6.37485 12.3276 5.25992 14.3532 5.25992C16.8628 5.25988 18.7441 6.89936 18.7441 10.4227ZM3.1119 0C1.807 0 0.953491 0.855911 0.953491 1.98146C0.953491 3.08249 1.78231 3.96437 3.06127 3.96437H3.08675C4.41692 3.96437 5.24417 3.08265 5.24417 1.98146C5.21911 0.855911 4.41692 0 3.1119 0ZM1.18003 17H4.99298V5.5294H1.18003V17Z" fill="#FEFEFF"/>
</svg>
