<svg width="15" height="19" viewBox="0 0 15 19" fill="none" xmlns="http://www.w3.org/2000/svg">
<path d="M7.5 0C3.36448 0 -7.89984e-08 3.08684 -7.89984e-08 6.88105C-7.89984e-08 11.5898 6.71176 18.5025 6.99752 18.7945C7.26593 19.0688 7.73455 19.0683 8.00248 18.7945C8.28823 18.5025 15 11.5898 15 6.88105C14.9999 3.08684 11.6355 0 7.5 0ZM7.5 10.3431C5.41932 10.3431 3.7266 8.79003 3.7266 6.88105C3.7266 4.97207 5.41936 3.41904 7.5 3.41904C9.58064 3.41904 11.2734 4.97211 11.2734 6.88109C11.2734 8.79007 9.58064 10.3431 7.5 10.3431Z" fill="#2E74DF"/>
</svg>
