<svg width="194" height="57" viewBox="0 0 194 57" fill="none" xmlns="http://www.w3.org/2000/svg">
<path d="M34.7954 21.0203C34.7954 17.7886 36.9831 14.6542 38.1768 15.2447C39.5374 15.9268 37.1571 18.9706 34.7954 21.0203ZM19.9184 22.1977C19.9184 19.5993 22.482 14.6624 24.048 15.1844C25.8993 15.8015 22.5144 20.7813 19.9184 22.1977ZM17.3188 40.7809C16.1402 40.8342 15.3514 40.0802 15.3514 38.8216C15.3514 35.4402 20.0436 32.2096 23.5874 30.4754C22.9587 35.1966 21.3637 40.5987 17.3188 40.7809ZM38.9667 29.762C36.2906 29.762 34.2455 31.7306 34.2455 34.0911C34.2455 36.0597 35.4287 37.6338 36.9982 37.6338C37.5538 37.6338 38.1037 37.3171 38.1037 36.6141C38.1037 35.5852 36.7465 35.3381 36.8486 33.8081C36.917 32.7989 37.8682 32.1238 38.8124 32.1238C40.6998 32.1238 41.5825 33.9531 41.5825 35.8404C41.506 38.7555 39.36 40.7797 36.8451 40.7797C33.5368 40.7797 31.4116 37.6338 31.4116 34.2477C31.4116 29.2064 34.72 27.239 36.453 26.7692C36.4692 26.7692 40.9793 27.5708 40.839 25.5826C40.774 24.7079 39.4736 24.3715 38.534 24.3356C37.4889 24.295 36.4333 24.6708 36.4333 24.6708C35.8858 24.3924 35.5053 23.8484 35.2698 23.222C38.4981 20.779 40.781 18.4196 40.781 15.7423C40.781 14.326 39.8344 13.0662 38.0236 13.0662C34.7954 13.0662 32.3547 17.1598 32.3547 20.8602C32.3547 21.4878 32.3547 22.12 32.5171 22.6698C30.4686 24.1639 28.9455 25.0954 26.1928 26.7484C26.1928 26.4038 26.2647 25.5141 26.4967 24.3634C27.4398 23.3391 28.7355 21.8045 28.7355 20.6224C28.7355 20.0726 28.4235 19.5981 27.7878 19.5981C26.216 19.5981 25.0374 21.9622 24.7219 23.6152C24.0132 24.4852 22.5956 25.5872 21.4124 25.5872C20.4694 25.5872 20.1527 24.7207 20.0726 24.404C23.0654 23.3797 26.7658 19.2861 26.7658 15.5857C26.7658 14.8004 26.4503 13.0662 24.0897 13.0662C20.5471 13.0662 17.5589 18.343 17.5589 22.432C16.2957 22.432 15.8259 21.0957 15.8259 20.0714C15.8259 19.046 16.2191 18.0264 16.2191 17.7097C16.2191 17.3942 16.0614 17.0021 15.5869 17.0021C14.4084 17.0021 13.6996 18.5762 13.6996 20.3869C13.7808 22.9065 15.4326 24.4852 17.6355 24.6395C17.951 26.1371 19.2873 27.5546 20.9392 27.5546C21.9646 27.5546 23.2232 27.239 24.0897 26.4537C24.0132 27.0036 23.9366 27.478 23.8554 27.9478C20.3893 29.762 17.8698 31.0206 15.5869 33.0669C13.7808 34.7222 12.7565 36.925 12.7565 38.6546C12.7565 41.0198 14.2506 43.2226 17.32 43.2226C20.9392 43.2226 23.6976 40.3111 25.0374 36.294C25.665 34.4067 25.9167 31.6575 26.078 29.1345C29.6948 27.0848 31.4116 25.9039 33.3024 24.5629C33.5379 24.9562 33.7757 25.2705 34.0878 25.506C32.4359 26.3725 28.5 28.8143 28.5 34.5598C28.5 38.6534 31.2527 43.2215 36.6885 43.2215C41.1754 43.2215 44.2447 39.5199 44.2447 35.9761C44.2436 32.7513 42.4328 29.762 38.9667 29.762ZM52.5028 36.5248C52.4912 36.5492 52.4471 36.5817 52.3578 36.5527C52.2882 36.5283 52.2731 36.4958 52.2731 36.4506C52.2766 36.4065 53.2243 33.6039 53.2162 30.3931C53.208 26.9224 51.7998 24.7961 49.9937 24.7961C48.8882 24.7961 48.1017 25.5861 48.1017 26.7692C48.1017 28.8944 50.6978 29.0533 50.6978 33.6967C50.6978 35.5841 50.3046 37.3948 49.6782 39.3622C46.7619 49.2013 37.4726 53.7693 28.4235 53.7693C24.2486 53.7693 21.2837 52.9109 20.4021 52.5154C20.3661 52.4945 20.3325 52.4261 20.3615 52.3565C20.3812 52.3043 20.4427 52.2637 20.4786 52.2799C20.8359 52.4179 23.3821 53.2195 26.5327 53.2195C29.9953 53.2195 32.0438 51.8031 32.0438 50.0689C32.0438 48.9681 31.1773 48.1016 30.0765 48.1016C27.9502 48.1016 27.789 50.7777 23.2244 50.7777C21.257 50.7777 19.524 50.3845 17.4789 49.7523C7.714 46.7618 3.06588 37.5537 3.06936 28.4222C3.07284 23.9725 4.321 20.4287 4.34072 20.3962C4.35696 20.373 4.41264 20.3475 4.48108 20.373C4.55068 20.3962 4.56576 20.4531 4.56228 20.4739C4.44976 20.8428 3.62268 23.3821 3.62268 26.5326C3.62268 29.9987 5.03904 32.0438 6.8498 32.0438C7.8706 32.0438 8.73712 31.2584 8.73712 30.1564C8.73712 28.0278 6.13756 27.7924 6.13756 23.2255C6.13756 21.2569 6.53428 19.5239 7.16184 17.4788C10.1546 7.7163 19.3674 3.14127 28.4212 3.07051C32.6285 3.03803 36.3092 4.29779 36.4507 4.41031C36.475 4.43119 36.4994 4.48455 36.475 4.54835C36.4414 4.62491 36.3927 4.63303 36.3695 4.62839C36.3254 4.62491 33.9312 3.62383 30.3073 3.62383C26.9224 3.62035 24.7962 5.03787 24.7962 6.85094C24.7962 7.87174 25.5861 8.73826 26.7635 8.73826C28.8898 8.73826 29.0476 6.14218 33.6156 6.14218C35.5784 6.14218 37.3126 6.53078 39.3576 7.16298C49.2014 10.1546 53.6802 19.4439 53.7648 28.4211C53.8112 33.0182 52.5155 36.4958 52.5028 36.5248ZM28.4223 1.3398C13.4641 1.3398 1.34096 13.4594 1.34096 28.4211C1.34096 43.3792 13.4641 55.4989 28.4223 55.4989C43.377 55.4989 55.5002 43.3792 55.5002 28.4211C55.5002 13.5406 43.377 1.3398 28.4223 1.3398ZM28.4223 56.8398C12.7554 56.8398 0 44.1657 0 28.4222C0 12.7507 12.7554 0 28.4223 0C44.0846 0 56.84 12.7507 56.84 28.4222C56.84 44.1657 44.0846 56.8398 28.4223 56.8398Z" fill="white"/>
<path d="M76.7 39H86.42C91.1 39 94.19 36.99 94.19 33.24C94.19 30.33 92.48 28.92 90.02 28.08C91.58 27.27 93.02 25.92 93.02 23.4C93.02 21.93 92.54 20.79 91.61 19.86C90.41 18.66 88.52 18 86.12 18H76.7V39ZM80.33 26.85V21.27H85.64C88.01 21.27 89.33 22.29 89.33 23.94C89.33 25.92 87.74 26.85 85.37 26.85H80.33ZM80.33 35.73V29.97H86.18C89.09 29.97 90.5 31.02 90.5 32.79C90.5 34.74 88.97 35.73 86.45 35.73H80.33ZM107.96 39.33C113.45 39.33 116.99 36.18 116.99 29.91V18H113.3V30.09C113.3 33.96 111.29 35.94 108.02 35.94C104.72 35.94 102.71 33.84 102.71 29.94V18H99.0204V30.09C99.0204 36.18 102.5 39.33 107.96 39.33ZM129.235 39H132.955V30.63L141.295 18H137.065L131.125 27.3L125.245 18H120.895L129.235 30.72V39ZM153.703 39.36C157.423 39.36 160.393 37.86 162.463 36.09V27.27H153.523V30.48H158.893V34.41C157.603 35.37 155.803 36 153.823 36C149.533 36 146.683 32.82 146.683 28.5C146.683 24.42 149.623 21.03 153.493 21.03C156.163 21.03 157.753 21.9 159.373 23.28L161.713 20.49C159.553 18.66 157.303 17.64 153.643 17.64C147.313 17.64 142.813 22.62 142.813 28.5C142.813 34.68 147.133 39.36 153.703 39.36ZM168.268 39H183.988V35.7H171.958V30.06H182.488V26.76H171.958V21.3H183.838V18H168.268V39Z" fill="white"/>
</svg>
