<svg width="15" height="19" viewBox="0 0 15 19" fill="none" xmlns="http://www.w3.org/2000/svg">
<path d="M1.63833 5.70699V7.69085H1.50633C0.675521 7.69085 0 8.36637 0 9.19718V17.4937C0 18.3245 0.675521 19 1.50633 19H13.0834C13.9142 19 14.5897 18.3245 14.5897 17.4937V9.1933C14.5897 8.36248 13.9142 7.68696 13.0834 7.68696H13.0445V5.70311C13.0445 2.55844 10.4861 0 7.34144 0C4.19677 0.0038823 1.63833 2.56232 1.63833 5.70699ZM8.18778 13.7123C8.07131 13.7977 8.04025 13.8792 8.04025 14.0151C8.04414 14.6246 8.04414 15.2303 8.04414 15.8398C8.05578 16.0922 7.92767 16.3406 7.70249 16.4532C7.17062 16.725 6.63874 16.3445 6.63874 15.8398V15.8359C6.63874 15.2264 6.63874 14.6169 6.64262 14.0074C6.64262 13.8831 6.61545 13.8016 6.50674 13.7201C5.95546 13.3124 5.77299 12.6175 6.04863 12.008C6.31651 11.414 6.97262 11.0646 7.58991 11.1888C8.27707 11.3286 8.7546 11.8799 8.76236 12.567C8.76236 13.0445 8.57213 13.4328 8.18778 13.7123ZM4.13465 5.70699C4.13465 3.93666 5.57499 2.5002 7.34144 2.5002C9.11177 2.5002 10.5482 3.94054 10.5482 5.70699V7.69085H4.13465V5.70699Z" fill="#6D89A0"/>
</svg>
