<svg width="18" height="16" viewBox="0 0 18 16" fill="none" xmlns="http://www.w3.org/2000/svg">
<path d="M17.2971 3.18276C16.8283 2.70203 16.2628 2.46161 15.6003 2.46161H13.5003L13.0222 1.15402C12.9034 0.839968 12.6863 0.569094 12.3706 0.341429C12.0549 0.113866 11.7315 0 11.4002 0H6.60007C6.26881 0 5.94534 0.113866 5.62968 0.341429C5.31402 0.569094 5.0969 0.839968 4.97813 1.15402L4.50002 2.46161H2.40001C1.7374 2.46161 1.17188 2.70203 0.703069 3.18276C0.234356 3.66351 0 4.24359 0 4.92311V13.5384C0 14.218 0.234356 14.7981 0.703069 15.2787C1.17188 15.7596 1.73743 16 2.40001 16H15.6001C16.2626 16 16.8281 15.7596 17.2969 15.2787C17.7656 14.7981 18 14.218 18 13.5384V4.92311C18.0001 4.24359 17.7657 3.66351 17.2971 3.18276ZM11.9673 12.2741C11.1454 13.1171 10.1564 13.5387 9.00005 13.5387C7.8437 13.5387 6.85479 13.1171 6.03285 12.2741C5.21091 11.4313 4.80002 10.4167 4.80002 9.23102C4.80002 8.04494 5.21104 7.03073 6.03285 6.18773C6.85469 5.34473 7.84373 4.92331 9.00005 4.92331C10.1564 4.92331 11.1454 5.34483 11.9673 6.18773C12.7892 7.03062 13.2001 8.04494 13.2001 9.23102C13.2001 10.4167 12.7892 11.4312 11.9673 12.2741Z" fill="#6D89A0"/>
<path d="M8.99894 6.46155C8.25515 6.46155 7.6192 6.73239 7.09105 7.27414C6.5629 7.81582 6.29883 8.46796 6.29883 9.23097C6.29883 9.99369 6.5629 10.6459 7.09105 11.1876C7.6192 11.7292 8.25512 12 8.99894 12C9.74263 12 10.3786 11.7292 10.9068 11.1876C11.4349 10.6459 11.699 9.99372 11.699 9.23097C11.699 8.46799 11.4349 7.81585 10.9068 7.27414C10.3787 6.73242 9.74263 6.46155 8.99894 6.46155Z" fill="#6D89A0"/>
</svg>
