<svg width="14" height="16" viewBox="0 0 14 16" fill="none" xmlns="http://www.w3.org/2000/svg">
<path d="M6.1351 0.0444136C2.95631 0.40049 0.40875 2.94158 0.0461988 6.12037C-0.429647 10.2767 2.80093 13.8148 6.85049 13.8602V15.7247C6.85049 15.8283 6.97997 15.8833 7.06737 15.8186L10.9065 12.9991C10.9713 12.9505 10.9713 12.8567 10.9065 12.8081L7.06737 9.98865C6.97997 9.9239 6.85049 9.98217 6.85049 10.0825V11.9438C4.00512 11.8985 1.72623 9.47719 1.92045 6.58326C2.08554 4.09397 4.11518 2.07405 6.60447 1.91543C9.24267 1.7471 11.486 3.63107 11.8873 6.1236C11.9618 6.5865 12.3664 6.92315 12.8326 6.92315C13.412 6.92315 13.8652 6.40846 13.7745 5.8355C13.2113 2.28446 9.93217 -0.379641 6.1351 0.0444136Z" fill="#fff"/>
</svg>
