<svg width="16" height="16" viewBox="0 0 16 16" fill="none" xmlns="http://www.w3.org/2000/svg">
<path fill-rule="evenodd" clip-rule="evenodd" d="M15.6086 13.7177L12.1326 10.2418C12.1141 10.2233 12.0925 10.2104 12.0732 10.1932C12.7571 9.15569 13.1563 7.91377 13.1563 6.57821C13.1563 2.94515 10.2111 0 6.57815 0C2.94515 0 0 2.94515 0 6.57815C0 10.2111 2.94509 13.1563 6.57809 13.1563C7.91371 13.1563 9.15556 12.7571 10.1931 12.0732C10.2103 12.0924 10.2231 12.1141 10.2416 12.1325L13.7176 15.6086C14.2398 16.1307 15.0863 16.1307 15.6086 15.6086C16.1307 15.0864 16.1307 14.2398 15.6086 13.7177ZM6.57815 10.8759C4.20452 10.8759 2.28037 8.95172 2.28037 6.57815C2.28037 4.20452 4.20458 2.28037 6.57815 2.28037C8.95166 2.28037 10.8759 4.20458 10.8759 6.57815C10.8759 8.95172 8.95166 10.8759 6.57815 10.8759Z" fill="white"/>
</svg>
