<svg width="190" height="18" viewBox="0 0 190 18" fill="none" xmlns="http://www.w3.org/2000/svg">
<path d="M6.00099 8.21617C7.75535 8.21617 9.17767 6.37694 9.17767 4.10811C9.17767 1.83923 8.7107 0 6.00099 0C3.29128 0 2.82422 1.83923 2.82422 4.10811C2.82422 6.37694 4.24654 8.21617 6.00099 8.21617Z" fill="#6D89A0"/>
<path d="M11.9933 15.5231C11.9344 11.5708 11.4496 10.4446 7.73961 9.73169C7.73961 9.73169 7.21737 10.4402 6.00013 10.4402C4.78289 10.4402 4.26056 9.73169 4.26056 9.73169C0.591037 10.4368 0.0767312 11.5463 0.00910674 15.3947C0.00356154 15.709 0.000991825 15.7255 0 15.689C0.000225415 15.7574 0.000495812 15.8838 0.000495812 16.1043C0.000495812 16.1043 0.883761 18 6.00013 18C11.1164 18 11.9998 16.1043 11.9998 16.1043C11.9998 15.9626 11.9999 15.8641 12 15.7971C11.999 15.8197 11.997 15.7759 11.9933 15.5231Z" fill="#6D89A0"/>
<path d="M183 16L189.062 7.75H176.938L183 16Z" fill="white"/>
</svg>
