<svg width="15" height="17" viewBox="0 0 15 17" fill="none" xmlns="http://www.w3.org/2000/svg">
<path d="M7.47084 0C6.64687 0 5.97656 0.670305 5.97656 1.49427V7.50457C5.97656 8.32854 6.64687 8.99884 7.47084 8.99884C8.2948 8.99884 8.96511 8.32854 8.96511 7.50457V1.49427C8.96511 0.670305 8.2948 0 7.47084 0Z" fill="#6D89A0"/>
<path d="M12.4716 3.94982C11.8427 3.38261 10.9276 3.44713 10.3784 4.01201C9.82619 4.58008 9.78352 5.54221 10.4831 6.18004C11.5934 7.18925 12.1547 8.71872 11.8888 10.2616C11.5279 12.3557 9.70679 14.0059 7.47112 14.0108C5.18107 14.0158 3.42668 12.325 3.0648 10.3379C2.78267 8.78579 3.30317 7.23168 4.4584 6.181C5.156 5.54593 5.11958 4.57955 4.56578 4.01085C4.01571 3.44596 3.09505 3.38494 2.4607 3.95905C0.70396 5.55024 -0.213044 7.90255 0.0420888 10.2869C0.447765 14.078 3.64868 17 7.48872 17C11.2847 17 14.3928 14.071 14.872 10.5339C15.2062 8.06927 14.3088 5.60799 12.4716 3.94982Z" fill="#6D89A0"/>
</svg>
