<svg width="21" height="18" viewBox="0 0 21 18" fill="none" xmlns="http://www.w3.org/2000/svg">
<path d="M21 2.60772C20.2386 2.94451 19.4196 3.1723 18.5606 3.27403C19.4376 2.74989 20.1107 1.92055 20.4283 0.930714C19.6077 1.41631 18.6984 1.76858 17.7314 1.95846C16.9567 1.13544 15.8529 0.621094 14.6306 0.621094C12.2856 0.621094 10.3836 2.51831 10.3836 4.85752C10.3836 5.18957 10.4213 5.51278 10.4942 5.82303C6.96454 5.64642 3.83495 3.95994 1.74011 1.39609C1.37461 2.02165 1.16493 2.74989 1.16493 3.52615C1.16493 4.99558 1.91526 6.29283 3.05422 7.05235C2.35837 7.03055 1.70306 6.84004 1.13073 6.52189C1.13041 6.53989 1.13041 6.5579 1.13041 6.57559C1.13041 8.62825 2.59496 10.3403 4.53746 10.7292C4.18145 10.8266 3.8055 10.878 3.41877 10.878C3.14449 10.878 2.87875 10.8518 2.61967 10.8025C3.16001 12.4852 4.72813 13.7101 6.58701 13.7446C5.13322 14.881 3.30222 15.5581 1.3119 15.5581C0.96983 15.5581 0.630931 15.5381 0.299316 15.4987C2.17783 16.7011 4.41076 17.4022 6.80903 17.4022C14.6208 17.4022 18.8928 10.9469 18.8928 5.34817C18.8928 5.16461 18.8887 4.98168 18.8805 4.80033C19.711 4.20321 20.4309 3.45728 21 2.60772Z" fill="#FEFEFF"/>
</svg>
