<svg width="12" height="18" viewBox="0 0 12 18" fill="none" xmlns="http://www.w3.org/2000/svg">
<path d="M6.00001 8.21617C7.75437 8.21617 9.17669 6.37694 9.17669 4.10811C9.17669 1.83923 8.70972 0 6.00001 0C3.2903 0 2.82324 1.83923 2.82324 4.10811C2.82324 6.37694 4.24556 8.21617 6.00001 8.21617Z" fill="#6D89A0"/>
<path d="M11.9933 15.5231C11.9344 11.5708 11.4496 10.4446 7.73961 9.73169C7.73961 9.73169 7.21737 10.4402 6.00013 10.4402C4.78289 10.4402 4.26056 9.73169 4.26056 9.73169C0.591037 10.4368 0.0767312 11.5463 0.00910674 15.3947C0.00356154 15.709 0.000991825 15.7255 0 15.689C0.000225415 15.7574 0.000495812 15.8838 0.000495812 16.1043C0.000495812 16.1043 0.883761 18 6.00013 18C11.1164 18 11.9998 16.1043 11.9998 16.1043C11.9998 15.9626 11.9999 15.8641 12 15.7971C11.999 15.8197 11.997 15.7759 11.9933 15.5231Z" fill="#6D89A0"/>
</svg>
