<svg width="24" height="17" viewBox="0 0 24 17" fill="none" xmlns="http://www.w3.org/2000/svg">
<path d="M22.5307 15.6201C21.7061 16.6002 20.1838 17 17.2766 17H6.72327C3.74948 17 2.20139 16.5744 1.37997 15.5309C0.579102 14.5135 0.579102 13.0144 0.579102 10.9396V6.98509C0.579102 2.96559 1.52932 0.924774 6.72327 0.924774H17.2767C19.7978 0.924774 21.1948 1.27757 22.0986 2.14254C23.0255 3.02954 23.421 4.47779 23.421 6.98509V10.9396C23.421 13.1276 23.359 14.6356 22.5307 15.6201ZM15.2437 8.41639L10.4514 5.91182C10.3443 5.85582 10.2271 5.82804 10.1101 5.82804C9.97765 5.82804 9.84546 5.8637 9.72838 5.93459C9.50792 6.06818 9.3733 6.30713 9.3733 6.56488V11.558C9.3733 11.8153 9.50755 12.054 9.72757 12.1877C9.94766 12.3213 10.2214 12.3305 10.4497 12.2118L15.242 9.72339C15.4858 9.5968 15.6389 9.3451 15.6393 9.07048C15.6396 8.79564 15.4871 8.54357 15.2437 8.41639Z" fill="#FEFEFF"/>
</svg>
